<mxfile host="app.diagrams.net" modified="2024-05-26T21:06:19.413Z" agent="Mozilla/5.0 (Macintosh; Intel Mac OS X 10_15_7) AppleWebKit/537.36 (KHTML, like Gecko) Chrome/124.0.0.0 Safari/537.36" etag="UPmwogbudcVXhEN3Xc8i" version="24.4.0" type="device">
  <diagram name="Page-1" id="cy9lTz2BtADd1XnLi5tj">
    <mxGraphModel dx="1560" dy="406" grid="1" gridSize="10" guides="1" tooltips="1" connect="1" arrows="1" fold="1" page="1" pageScale="1" pageWidth="827" pageHeight="1169" math="0" shadow="0">
      <root>
        <mxCell id="0" />
        <mxCell id="1" parent="0" />
        <mxCell id="sj1nmU6FJb1mizH8p0wp-8" value="Slave" style="swimlane;horizontal=0;whiteSpace=wrap;html=1;flipV=1;flipH=1;" parent="1" vertex="1">
          <mxGeometry x="240" y="340" width="400" height="940" as="geometry" />
        </mxCell>
        <mxCell id="sj1nmU6FJb1mizH8p0wp-7" value="Master" style="swimlane;horizontal=0;whiteSpace=wrap;html=1;" parent="sj1nmU6FJb1mizH8p0wp-8" vertex="1">
          <mxGeometry x="-10" width="410" height="940" as="geometry" />
        </mxCell>
        <mxCell id="sj1nmU6FJb1mizH8p0wp-9" value="" style="endArrow=classic;html=1;rounded=0;strokeWidth=4;" parent="sj1nmU6FJb1mizH8p0wp-7" edge="1">
          <mxGeometry width="50" height="50" relative="1" as="geometry">
            <mxPoint x="21" y="43" as="sourcePoint" />
            <mxPoint x="389" y="43" as="targetPoint" />
          </mxGeometry>
        </mxCell>
        <mxCell id="sj1nmU6FJb1mizH8p0wp-23" value="Send chunk" style="rounded=1;whiteSpace=wrap;html=1;fillColor=#d5e8d4;strokeColor=#82b366;" parent="sj1nmU6FJb1mizH8p0wp-7" vertex="1">
          <mxGeometry x="150" y="22" width="86" height="40" as="geometry" />
        </mxCell>
        <mxCell id="sj1nmU6FJb1mizH8p0wp-33" value="" style="endArrow=none;html=1;rounded=0;strokeWidth=4;startArrow=classic;startFill=1;endFill=0;" parent="sj1nmU6FJb1mizH8p0wp-7" edge="1">
          <mxGeometry width="50" height="50" relative="1" as="geometry">
            <mxPoint x="21" y="140" as="sourcePoint" />
            <mxPoint x="389" y="140" as="targetPoint" />
          </mxGeometry>
        </mxCell>
        <mxCell id="sj1nmU6FJb1mizH8p0wp-34" value="Map finished" style="rounded=1;whiteSpace=wrap;html=1;fillColor=#d5e8d4;strokeColor=#82b366;" parent="sj1nmU6FJb1mizH8p0wp-7" vertex="1">
          <mxGeometry x="150" y="120" width="86" height="40" as="geometry" />
        </mxCell>
        <mxCell id="sj1nmU6FJb1mizH8p0wp-204" value="" style="endArrow=classic;html=1;rounded=0;strokeWidth=4;" parent="sj1nmU6FJb1mizH8p0wp-7" edge="1">
          <mxGeometry width="50" height="50" relative="1" as="geometry">
            <mxPoint x="21" y="604" as="sourcePoint" />
            <mxPoint x="389" y="604" as="targetPoint" />
          </mxGeometry>
        </mxCell>
        <mxCell id="sj1nmU6FJb1mizH8p0wp-205" value="Send groups" style="rounded=1;whiteSpace=wrap;html=1;" parent="sj1nmU6FJb1mizH8p0wp-7" vertex="1">
          <mxGeometry x="150" y="584" width="86" height="40" as="geometry" />
        </mxCell>
        <mxCell id="sj1nmU6FJb1mizH8p0wp-237" value="" style="endArrow=classic;html=1;rounded=0;strokeWidth=4;" parent="sj1nmU6FJb1mizH8p0wp-7" edge="1">
          <mxGeometry width="50" height="50" relative="1" as="geometry">
            <mxPoint x="21" y="793" as="sourcePoint" />
            <mxPoint x="389" y="793" as="targetPoint" />
          </mxGeometry>
        </mxCell>
        <mxCell id="sj1nmU6FJb1mizH8p0wp-238" value="Start Reduce2" style="rounded=1;whiteSpace=wrap;html=1;" parent="sj1nmU6FJb1mizH8p0wp-7" vertex="1">
          <mxGeometry x="150" y="770" width="86" height="40" as="geometry" />
        </mxCell>
        <mxCell id="sj1nmU6FJb1mizH8p0wp-14" value="" style="endArrow=classic;html=1;rounded=0;strokeWidth=4;entryX=0.024;entryY=0.077;entryDx=0;entryDy=0;entryPerimeter=0;" parent="1" edge="1">
          <mxGeometry width="50" height="50" relative="1" as="geometry">
            <mxPoint y="383" as="sourcePoint" />
            <mxPoint x="229.84000000000015" y="383.03" as="targetPoint" />
          </mxGeometry>
        </mxCell>
        <mxCell id="sj1nmU6FJb1mizH8p0wp-27" value="Map" style="shape=hexagon;perimeter=hexagonPerimeter2;whiteSpace=wrap;html=1;fixedSize=1;fillColor=#d5e8d4;strokeColor=#82b366;" parent="1" vertex="1">
          <mxGeometry x="720" y="365" width="80" height="39" as="geometry" />
        </mxCell>
        <mxCell id="sj1nmU6FJb1mizH8p0wp-29" value="Split" style="shape=hexagon;perimeter=hexagonPerimeter2;whiteSpace=wrap;html=1;fixedSize=1;fillColor=#d5e8d4;strokeColor=#82b366;" parent="1" vertex="1">
          <mxGeometry x="80" y="358" width="80" height="50" as="geometry" />
        </mxCell>
        <mxCell id="sj1nmU6FJb1mizH8p0wp-31" value="" style="endArrow=classic;html=1;rounded=0;strokeWidth=4;entryX=0;entryY=0.5;entryDx=0;entryDy=0;" parent="1" target="sj1nmU6FJb1mizH8p0wp-27" edge="1">
          <mxGeometry width="50" height="50" relative="1" as="geometry">
            <mxPoint x="640" y="384.63" as="sourcePoint" />
            <mxPoint x="1008" y="384.63" as="targetPoint" />
          </mxGeometry>
        </mxCell>
        <mxCell id="sj1nmU6FJb1mizH8p0wp-32" value="" style="endArrow=classic;html=1;rounded=0;strokeWidth=4;exitX=0.5;exitY=1;exitDx=0;exitDy=0;" parent="1" source="sj1nmU6FJb1mizH8p0wp-27" edge="1">
          <mxGeometry width="50" height="50" relative="1" as="geometry">
            <mxPoint x="778" y="420" as="sourcePoint" />
            <mxPoint x="640" y="480" as="targetPoint" />
            <Array as="points">
              <mxPoint x="760" y="480" />
            </Array>
          </mxGeometry>
        </mxCell>
        <mxCell id="sj1nmU6FJb1mizH8p0wp-43" value="" style="endArrow=none;html=1;rounded=0;strokeWidth=4;startArrow=classic;startFill=1;endFill=0;" parent="1" edge="1">
          <mxGeometry width="50" height="50" relative="1" as="geometry">
            <mxPoint y="480" as="sourcePoint" />
            <mxPoint x="230" y="480" as="targetPoint" />
          </mxGeometry>
        </mxCell>
        <mxCell id="sj1nmU6FJb1mizH8p0wp-46" value="" style="endArrow=classic;html=1;rounded=0;strokeWidth=4;" parent="1" edge="1">
          <mxGeometry width="50" height="50" relative="1" as="geometry">
            <mxPoint x="251" y="573" as="sourcePoint" />
            <mxPoint x="619" y="573" as="targetPoint" />
          </mxGeometry>
        </mxCell>
        <mxCell id="sj1nmU6FJb1mizH8p0wp-47" value="Start Shuffle1" style="rounded=1;whiteSpace=wrap;html=1;fillColor=#d5e8d4;strokeColor=#82b366;" parent="1" vertex="1">
          <mxGeometry x="380" y="553" width="86" height="40" as="geometry" />
        </mxCell>
        <mxCell id="sj1nmU6FJb1mizH8p0wp-48" value="Choose Reducer" style="shape=hexagon;perimeter=hexagonPerimeter2;whiteSpace=wrap;html=1;fixedSize=1;fillColor=#d5e8d4;strokeColor=#82b366;" parent="1" vertex="1">
          <mxGeometry x="720" y="420" width="80" height="40" as="geometry" />
        </mxCell>
        <mxCell id="sj1nmU6FJb1mizH8p0wp-50" value="" style="endArrow=classic;html=1;rounded=0;strokeWidth=4;entryX=0;entryY=0.5;entryDx=0;entryDy=0;" parent="1" target="sj1nmU6FJb1mizH8p0wp-51" edge="1">
          <mxGeometry width="50" height="50" relative="1" as="geometry">
            <mxPoint x="640" y="572.71" as="sourcePoint" />
            <mxPoint x="720" y="573" as="targetPoint" />
          </mxGeometry>
        </mxCell>
        <mxCell id="sj1nmU6FJb1mizH8p0wp-108" style="edgeStyle=orthogonalEdgeStyle;rounded=0;orthogonalLoop=1;jettySize=auto;html=1;strokeWidth=4;" parent="1" source="sj1nmU6FJb1mizH8p0wp-51" edge="1">
          <mxGeometry relative="1" as="geometry">
            <mxPoint x="1010" y="572.5" as="targetPoint" />
          </mxGeometry>
        </mxCell>
        <mxCell id="sj1nmU6FJb1mizH8p0wp-109" value="&amp;nbsp;Send Maps&amp;nbsp;" style="edgeLabel;html=1;align=center;verticalAlign=middle;resizable=0;points=[];" parent="sj1nmU6FJb1mizH8p0wp-108" vertex="1" connectable="0">
          <mxGeometry x="-0.122" y="-1" relative="1" as="geometry">
            <mxPoint as="offset" />
          </mxGeometry>
        </mxCell>
        <mxCell id="sj1nmU6FJb1mizH8p0wp-51" value="Shuffle1" style="shape=hexagon;perimeter=hexagonPerimeter2;whiteSpace=wrap;html=1;fixedSize=1;fillColor=#d5e8d4;strokeColor=#82b366;" parent="1" vertex="1">
          <mxGeometry x="720" y="553" width="80" height="39" as="geometry" />
        </mxCell>
        <mxCell id="sj1nmU6FJb1mizH8p0wp-59" value="" style="endArrow=classic;html=1;rounded=0;strokeWidth=4;" parent="1" edge="1">
          <mxGeometry width="50" height="50" relative="1" as="geometry">
            <mxPoint x="860" y="841.47" as="sourcePoint" />
            <mxPoint x="640" y="841.47" as="targetPoint" />
          </mxGeometry>
        </mxCell>
        <mxCell id="sj1nmU6FJb1mizH8p0wp-61" value="Reduce1" style="shape=hexagon;perimeter=hexagonPerimeter2;whiteSpace=wrap;html=1;fixedSize=1;" parent="1" vertex="1">
          <mxGeometry x="720" y="817.06" width="80" height="50" as="geometry" />
        </mxCell>
        <mxCell id="sj1nmU6FJb1mizH8p0wp-64" value="" style="endArrow=none;html=1;rounded=0;strokeWidth=4;startArrow=classic;startFill=1;endFill=0;" parent="1" edge="1">
          <mxGeometry width="50" height="50" relative="1" as="geometry">
            <mxPoint x="251" y="842.06" as="sourcePoint" />
            <mxPoint x="620" y="842.06" as="targetPoint" />
          </mxGeometry>
        </mxCell>
        <mxCell id="sj1nmU6FJb1mizH8p0wp-63" value="Send counts" style="rounded=1;whiteSpace=wrap;html=1;" parent="1" vertex="1">
          <mxGeometry x="380" y="822.06" width="86" height="40" as="geometry" />
        </mxCell>
        <mxCell id="sj1nmU6FJb1mizH8p0wp-103" style="edgeStyle=orthogonalEdgeStyle;rounded=0;orthogonalLoop=1;jettySize=auto;html=1;entryX=0.5;entryY=0;entryDx=0;entryDy=0;strokeWidth=4;" parent="1" source="sj1nmU6FJb1mizH8p0wp-89" target="sj1nmU6FJb1mizH8p0wp-101" edge="1">
          <mxGeometry relative="1" as="geometry" />
        </mxCell>
        <mxCell id="sj1nmU6FJb1mizH8p0wp-89" value="&lt;font style=&quot;font-size: 11px;&quot;&gt;Slave Map Status&lt;/font&gt;" style="swimlane;fontStyle=0;childLayout=stackLayout;horizontal=1;startSize=20;fillColor=#d5e8d4;horizontalStack=0;resizeParent=1;resizeParentMax=0;resizeLast=0;collapsible=1;marginBottom=0;html=1;strokeColor=#82b366;" parent="1" vertex="1">
          <mxGeometry x="-110" y="440" width="110" height="68" as="geometry" />
        </mxCell>
        <mxCell id="sj1nmU6FJb1mizH8p0wp-90" value="Slave1: OK" style="text;strokeColor=#82b366;fillColor=#d5e8d4;align=left;verticalAlign=middle;spacingLeft=4;spacingRight=4;overflow=hidden;rotatable=0;points=[[0,0.5],[1,0.5]];portConstraint=eastwest;whiteSpace=wrap;html=1;fontSize=10;" parent="sj1nmU6FJb1mizH8p0wp-89" vertex="1">
          <mxGeometry y="20" width="110" height="16" as="geometry" />
        </mxCell>
        <mxCell id="sj1nmU6FJb1mizH8p0wp-91" value="Slave2: NOT OK" style="text;strokeColor=#82b366;fillColor=#d5e8d4;align=left;verticalAlign=middle;spacingLeft=4;spacingRight=4;overflow=hidden;rotatable=0;points=[[0,0.5],[1,0.5]];portConstraint=eastwest;whiteSpace=wrap;html=1;fontSize=10;" parent="sj1nmU6FJb1mizH8p0wp-89" vertex="1">
          <mxGeometry y="36" width="110" height="16" as="geometry" />
        </mxCell>
        <mxCell id="sj1nmU6FJb1mizH8p0wp-92" value="..." style="text;strokeColor=#82b366;fillColor=#d5e8d4;align=center;verticalAlign=middle;spacingLeft=4;spacingRight=4;overflow=hidden;rotatable=0;points=[[0,0.5],[1,0.5]];portConstraint=eastwest;whiteSpace=wrap;html=1;" parent="sj1nmU6FJb1mizH8p0wp-89" vertex="1">
          <mxGeometry y="52" width="110" height="16" as="geometry" />
        </mxCell>
        <mxCell id="sj1nmU6FJb1mizH8p0wp-67" value="Update&amp;nbsp;&lt;div&gt;Map&amp;nbsp;&lt;div&gt;Status&lt;/div&gt;&lt;/div&gt;" style="shape=hexagon;perimeter=hexagonPerimeter2;whiteSpace=wrap;html=1;fixedSize=1;fillColor=#d5e8d4;strokeColor=#82b366;" parent="1" vertex="1">
          <mxGeometry x="80" y="455" width="80" height="50" as="geometry" />
        </mxCell>
        <mxCell id="sj1nmU6FJb1mizH8p0wp-97" value="" style="endArrow=none;html=1;rounded=0;strokeWidth=4;startArrow=classic;startFill=1;endFill=0;" parent="1" edge="1">
          <mxGeometry width="50" height="50" relative="1" as="geometry">
            <mxPoint y="842.06" as="sourcePoint" />
            <mxPoint x="230" y="841.7299999999999" as="targetPoint" />
          </mxGeometry>
        </mxCell>
        <mxCell id="sj1nmU6FJb1mizH8p0wp-68" value="Update&lt;div&gt;Reduce1&lt;/div&gt;&lt;div&gt;status&lt;/div&gt;" style="shape=hexagon;perimeter=hexagonPerimeter2;whiteSpace=wrap;html=1;fixedSize=1;" parent="1" vertex="1">
          <mxGeometry x="80" y="817.06" width="80" height="50" as="geometry" />
        </mxCell>
        <mxCell id="sj1nmU6FJb1mizH8p0wp-101" value="&lt;font style=&quot;font-size: 10px;&quot;&gt;All&amp;nbsp;&lt;/font&gt;&lt;div&gt;&lt;font style=&quot;font-size: 10px;&quot;&gt;Map&amp;nbsp;&lt;/font&gt;&lt;/div&gt;&lt;div&gt;&lt;font style=&quot;font-size: 10px;&quot;&gt;OK?&lt;/font&gt;&lt;/div&gt;" style="rhombus;whiteSpace=wrap;html=1;verticalAlign=middle;fillColor=#d5e8d4;strokeColor=#82b366;" parent="1" vertex="1">
          <mxGeometry x="-90" y="538.93" width="70" height="68.13" as="geometry" />
        </mxCell>
        <mxCell id="sj1nmU6FJb1mizH8p0wp-104" style="edgeStyle=orthogonalEdgeStyle;rounded=0;orthogonalLoop=1;jettySize=auto;html=1;exitX=1;exitY=0.5;exitDx=0;exitDy=0;strokeWidth=4;" parent="1" source="sj1nmU6FJb1mizH8p0wp-101" edge="1">
          <mxGeometry relative="1" as="geometry">
            <mxPoint x="-10.000000000000227" y="572.625" as="sourcePoint" />
            <mxPoint x="230" y="572.63" as="targetPoint" />
          </mxGeometry>
        </mxCell>
        <mxCell id="sj1nmU6FJb1mizH8p0wp-105" value="&amp;nbsp;Yes&amp;nbsp;" style="edgeLabel;html=1;align=center;verticalAlign=middle;resizable=0;points=[];" parent="sj1nmU6FJb1mizH8p0wp-104" vertex="1" connectable="0">
          <mxGeometry x="-0.0337" y="1" relative="1" as="geometry">
            <mxPoint as="offset" />
          </mxGeometry>
        </mxCell>
        <mxCell id="sj1nmU6FJb1mizH8p0wp-112" style="edgeStyle=orthogonalEdgeStyle;rounded=0;orthogonalLoop=1;jettySize=auto;html=1;strokeWidth=3;dashed=1;" parent="1" source="sj1nmU6FJb1mizH8p0wp-106" edge="1">
          <mxGeometry relative="1" as="geometry">
            <mxPoint x="1035" y="553" as="targetPoint" />
          </mxGeometry>
        </mxCell>
        <mxCell id="sj1nmU6FJb1mizH8p0wp-106" value="Reducer" style="shape=cylinder3;whiteSpace=wrap;html=1;boundedLbl=1;backgroundOutline=1;size=15;" parent="1" vertex="1">
          <mxGeometry x="880" y="440" width="60" height="50" as="geometry" />
        </mxCell>
        <mxCell id="sj1nmU6FJb1mizH8p0wp-107" style="edgeStyle=orthogonalEdgeStyle;rounded=0;orthogonalLoop=1;jettySize=auto;html=1;entryX=0.5;entryY=0;entryDx=0;entryDy=0;entryPerimeter=0;strokeWidth=4;" parent="1" source="sj1nmU6FJb1mizH8p0wp-48" target="sj1nmU6FJb1mizH8p0wp-106" edge="1">
          <mxGeometry relative="1" as="geometry">
            <Array as="points">
              <mxPoint x="820" y="440" />
              <mxPoint x="820" y="410" />
              <mxPoint x="910" y="410" />
            </Array>
          </mxGeometry>
        </mxCell>
        <mxCell id="sj1nmU6FJb1mizH8p0wp-113" value="" style="whiteSpace=wrap;html=1;shape=mxgraph.basic.document" parent="1" vertex="1">
          <mxGeometry x="-50" y="338" width="50" height="70" as="geometry" />
        </mxCell>
        <mxCell id="sj1nmU6FJb1mizH8p0wp-114" value="" style="whiteSpace=wrap;html=1;shape=mxgraph.basic.document" parent="1" vertex="1">
          <mxGeometry x="-80" y="353" width="50" height="70" as="geometry" />
        </mxCell>
        <mxCell id="sj1nmU6FJb1mizH8p0wp-176" style="edgeStyle=orthogonalEdgeStyle;rounded=0;orthogonalLoop=1;jettySize=auto;html=1;strokeWidth=4;" parent="1" edge="1">
          <mxGeometry relative="1" as="geometry">
            <mxPoint x="640" y="660" as="targetPoint" />
            <mxPoint x="1020" y="610" as="sourcePoint" />
            <Array as="points">
              <mxPoint x="1020" y="660" />
            </Array>
          </mxGeometry>
        </mxCell>
        <mxCell id="sj1nmU6FJb1mizH8p0wp-116" value="&lt;div&gt;&lt;font style=&quot;font-size: 9px;&quot;&gt;&lt;br&gt;&lt;/font&gt;&lt;/div&gt;&lt;font style=&quot;font-size: 9px;&quot;&gt;&lt;div&gt;&lt;font style=&quot;font-size: 9px;&quot;&gt;&lt;br&gt;&lt;/font&gt;&lt;/div&gt;&lt;div&gt;&lt;font style=&quot;font-size: 9px;&quot;&gt;&lt;br&gt;&lt;/font&gt;&lt;/div&gt;&lt;div&gt;&lt;font style=&quot;font-size: 9px;&quot;&gt;&lt;br&gt;&lt;/font&gt;&lt;/div&gt;&lt;div&gt;&lt;font style=&quot;font-size: 9px;&quot;&gt;&lt;br&gt;&lt;/font&gt;&lt;/div&gt;&lt;div&gt;&lt;font style=&quot;font-size: 9px;&quot;&gt;&lt;br&gt;&lt;/font&gt;&lt;/div&gt;&lt;div&gt;&lt;font style=&quot;font-size: 9px;&quot;&gt;&lt;br&gt;&lt;/font&gt;&lt;/div&gt;&lt;div&gt;&lt;font style=&quot;font-size: 9px;&quot;&gt;&lt;br&gt;&lt;/font&gt;&lt;/div&gt;&lt;div&gt;&lt;font style=&quot;font-size: 9px;&quot;&gt;&lt;br&gt;&lt;/font&gt;&lt;/div&gt;&lt;div&gt;&lt;font style=&quot;font-size: 9px;&quot;&gt;&lt;br&gt;&lt;/font&gt;&lt;/div&gt;&lt;div&gt;&lt;font style=&quot;font-size: 9px;&quot;&gt;&lt;br&gt;&lt;/font&gt;&lt;/div&gt;&lt;div&gt;&lt;font style=&quot;font-size: 9px;&quot;&gt;&lt;br&gt;&lt;/font&gt;&lt;/div&gt;&lt;div&gt;&lt;font style=&quot;font-size: 9px;&quot;&gt;&lt;br&gt;&lt;/font&gt;&lt;/div&gt;&amp;nbsp; &amp;nbsp; &amp;nbsp; &amp;nbsp; &amp;nbsp; &amp;nbsp; &amp;nbsp;Map&lt;/font&gt;" style="shadow=0;strokeWidth=1;rounded=1;absoluteArcSize=1;arcSize=2;labelPosition=center;verticalLabelPosition=middle;align=center;verticalAlign=bottom;spacingLeft=0;fontSize=12;whiteSpace=wrap;spacingBottom=-1;html=1;" parent="1" vertex="1">
          <mxGeometry x="1040" y="572" width="40" height="48" as="geometry" />
        </mxCell>
        <mxCell id="sj1nmU6FJb1mizH8p0wp-117" value="" style="sketch=0;dashed=0;connectable=0;html=1;fillColor=#757575;strokeColor=none;shape=mxgraph.gcp2.list;part=1;" parent="sj1nmU6FJb1mizH8p0wp-116" vertex="1">
          <mxGeometry x="0.5" width="29.5" height="30" relative="1" as="geometry">
            <mxPoint x="-15" y="5" as="offset" />
          </mxGeometry>
        </mxCell>
        <mxCell id="sj1nmU6FJb1mizH8p0wp-118" value="" style="html=1;verticalLabelPosition=bottom;align=center;labelBackgroundColor=#ffffff;verticalAlign=top;strokeWidth=2;strokeColor=#000000;shadow=0;dashed=0;shape=mxgraph.ios7.icons.pointer;" parent="1" vertex="1">
          <mxGeometry x="1010" y="553" width="50" height="51.5" as="geometry" />
        </mxCell>
        <mxCell id="sj1nmU6FJb1mizH8p0wp-121" value="Master" style="swimlane;fontStyle=0;childLayout=stackLayout;horizontal=1;startSize=30;horizontalStack=0;resizeParent=1;resizeParentMax=0;resizeLast=0;collapsible=1;marginBottom=0;whiteSpace=wrap;html=1;" parent="1" vertex="1">
          <mxGeometry x="90" y="1424" width="270" height="330" as="geometry">
            <mxRectangle x="100" y="810" width="80" height="30" as="alternateBounds" />
          </mxGeometry>
        </mxCell>
        <mxCell id="sj1nmU6FJb1mizH8p0wp-144" value="sourceFilePath : string" style="text;strokeColor=none;fillColor=none;align=left;verticalAlign=middle;spacingLeft=4;spacingRight=4;overflow=hidden;points=[[0,0.5],[1,0.5]];portConstraint=eastwest;rotatable=0;whiteSpace=wrap;html=1;" parent="sj1nmU6FJb1mizH8p0wp-121" vertex="1">
          <mxGeometry y="30" width="270" height="30" as="geometry" />
        </mxCell>
        <mxCell id="sj1nmU6FJb1mizH8p0wp-122" value="slavesCount : int" style="text;strokeColor=none;fillColor=none;align=left;verticalAlign=middle;spacingLeft=4;spacingRight=4;overflow=hidden;points=[[0,0.5],[1,0.5]];portConstraint=eastwest;rotatable=0;whiteSpace=wrap;html=1;" parent="sj1nmU6FJb1mizH8p0wp-121" vertex="1">
          <mxGeometry y="60" width="270" height="30" as="geometry" />
        </mxCell>
        <mxCell id="sj1nmU6FJb1mizH8p0wp-130" value="slavesHostnames : String[]" style="text;strokeColor=none;fillColor=none;align=left;verticalAlign=middle;spacingLeft=4;spacingRight=4;overflow=hidden;points=[[0,0.5],[1,0.5]];portConstraint=eastwest;rotatable=0;whiteSpace=wrap;html=1;" parent="sj1nmU6FJb1mizH8p0wp-121" vertex="1">
          <mxGeometry y="90" width="270" height="30" as="geometry" />
        </mxCell>
        <mxCell id="sj1nmU6FJb1mizH8p0wp-124" value="slavesThreads : threads[]" style="text;strokeColor=none;fillColor=none;align=left;verticalAlign=middle;spacingLeft=4;spacingRight=4;overflow=hidden;points=[[0,0.5],[1,0.5]];portConstraint=eastwest;rotatable=0;whiteSpace=wrap;html=1;" parent="sj1nmU6FJb1mizH8p0wp-121" vertex="1">
          <mxGeometry y="120" width="270" height="30" as="geometry" />
        </mxCell>
        <mxCell id="sj1nmU6FJb1mizH8p0wp-129" value="slavesShuffleStatus : boolean[]" style="text;strokeColor=none;fillColor=none;align=left;verticalAlign=middle;spacingLeft=4;spacingRight=4;overflow=hidden;points=[[0,0.5],[1,0.5]];portConstraint=eastwest;rotatable=0;whiteSpace=wrap;html=1;" parent="sj1nmU6FJb1mizH8p0wp-121" vertex="1">
          <mxGeometry y="150" width="270" height="30" as="geometry" />
        </mxCell>
        <mxCell id="sj1nmU6FJb1mizH8p0wp-128" value="slavesReduceStatus : boolean[]" style="text;strokeColor=none;fillColor=none;align=left;verticalAlign=middle;spacingLeft=4;spacingRight=4;overflow=hidden;points=[[0,0.5],[1,0.5]];portConstraint=eastwest;rotatable=0;whiteSpace=wrap;html=1;" parent="sj1nmU6FJb1mizH8p0wp-121" vertex="1">
          <mxGeometry y="180" width="270" height="30" as="geometry" />
        </mxCell>
        <mxCell id="sj1nmU6FJb1mizH8p0wp-127" value="output : HashMap&amp;lt;String, int&amp;gt;" style="text;strokeColor=none;fillColor=none;align=left;verticalAlign=middle;spacingLeft=4;spacingRight=4;overflow=hidden;points=[[0,0.5],[1,0.5]];portConstraint=eastwest;rotatable=0;whiteSpace=wrap;html=1;" parent="sj1nmU6FJb1mizH8p0wp-121" vertex="1">
          <mxGeometry y="210" width="270" height="30" as="geometry" />
        </mxCell>
        <mxCell id="sj1nmU6FJb1mizH8p0wp-153" style="text;strokeColor=none;fillColor=none;align=left;verticalAlign=middle;spacingLeft=4;spacingRight=4;overflow=hidden;points=[[0,0.5],[1,0.5]];portConstraint=eastwest;rotatable=0;whiteSpace=wrap;html=1;" parent="sj1nmU6FJb1mizH8p0wp-121" vertex="1">
          <mxGeometry y="240" width="270" height="30" as="geometry" />
        </mxCell>
        <mxCell id="sj1nmU6FJb1mizH8p0wp-154" value="splitToFiles()" style="text;strokeColor=none;fillColor=none;align=left;verticalAlign=middle;spacingLeft=4;spacingRight=4;overflow=hidden;points=[[0,0.5],[1,0.5]];portConstraint=eastwest;rotatable=0;whiteSpace=wrap;html=1;" parent="sj1nmU6FJb1mizH8p0wp-121" vertex="1">
          <mxGeometry y="270" width="270" height="30" as="geometry" />
        </mxCell>
        <mxCell id="sj1nmU6FJb1mizH8p0wp-155" value="sendSplits()" style="text;strokeColor=none;fillColor=none;align=left;verticalAlign=middle;spacingLeft=4;spacingRight=4;overflow=hidden;points=[[0,0.5],[1,0.5]];portConstraint=eastwest;rotatable=0;whiteSpace=wrap;html=1;" parent="sj1nmU6FJb1mizH8p0wp-121" vertex="1">
          <mxGeometry y="300" width="270" height="30" as="geometry" />
        </mxCell>
        <mxCell id="sj1nmU6FJb1mizH8p0wp-145" value="Slave" style="swimlane;fontStyle=0;childLayout=stackLayout;horizontal=1;startSize=30;horizontalStack=0;resizeParent=1;resizeParentMax=0;resizeLast=0;collapsible=1;marginBottom=0;whiteSpace=wrap;html=1;" parent="1" vertex="1">
          <mxGeometry x="390" y="1424" width="270" height="240" as="geometry">
            <mxRectangle x="100" y="810" width="80" height="30" as="alternateBounds" />
          </mxGeometry>
        </mxCell>
        <mxCell id="sj1nmU6FJb1mizH8p0wp-146" value="sourceFilePath" style="text;strokeColor=none;fillColor=none;align=left;verticalAlign=middle;spacingLeft=4;spacingRight=4;overflow=hidden;points=[[0,0.5],[1,0.5]];portConstraint=eastwest;rotatable=0;whiteSpace=wrap;html=1;" parent="sj1nmU6FJb1mizH8p0wp-145" vertex="1">
          <mxGeometry y="30" width="270" height="30" as="geometry" />
        </mxCell>
        <mxCell id="sj1nmU6FJb1mizH8p0wp-147" value="slavesNumber" style="text;strokeColor=none;fillColor=none;align=left;verticalAlign=middle;spacingLeft=4;spacingRight=4;overflow=hidden;points=[[0,0.5],[1,0.5]];portConstraint=eastwest;rotatable=0;whiteSpace=wrap;html=1;" parent="sj1nmU6FJb1mizH8p0wp-145" vertex="1">
          <mxGeometry y="60" width="270" height="30" as="geometry" />
        </mxCell>
        <mxCell id="sj1nmU6FJb1mizH8p0wp-148" value="slavesHostnames" style="text;strokeColor=none;fillColor=none;align=left;verticalAlign=middle;spacingLeft=4;spacingRight=4;overflow=hidden;points=[[0,0.5],[1,0.5]];portConstraint=eastwest;rotatable=0;whiteSpace=wrap;html=1;" parent="sj1nmU6FJb1mizH8p0wp-145" vertex="1">
          <mxGeometry y="90" width="270" height="30" as="geometry" />
        </mxCell>
        <mxCell id="sj1nmU6FJb1mizH8p0wp-149" value="slavesThreads" style="text;strokeColor=none;fillColor=none;align=left;verticalAlign=middle;spacingLeft=4;spacingRight=4;overflow=hidden;points=[[0,0.5],[1,0.5]];portConstraint=eastwest;rotatable=0;whiteSpace=wrap;html=1;" parent="sj1nmU6FJb1mizH8p0wp-145" vertex="1">
          <mxGeometry y="120" width="270" height="30" as="geometry" />
        </mxCell>
        <mxCell id="sj1nmU6FJb1mizH8p0wp-150" value="slavesShuffleStatus" style="text;strokeColor=none;fillColor=none;align=left;verticalAlign=middle;spacingLeft=4;spacingRight=4;overflow=hidden;points=[[0,0.5],[1,0.5]];portConstraint=eastwest;rotatable=0;whiteSpace=wrap;html=1;" parent="sj1nmU6FJb1mizH8p0wp-145" vertex="1">
          <mxGeometry y="150" width="270" height="30" as="geometry" />
        </mxCell>
        <mxCell id="sj1nmU6FJb1mizH8p0wp-151" value="slavesReduceStatus" style="text;strokeColor=none;fillColor=none;align=left;verticalAlign=middle;spacingLeft=4;spacingRight=4;overflow=hidden;points=[[0,0.5],[1,0.5]];portConstraint=eastwest;rotatable=0;whiteSpace=wrap;html=1;" parent="sj1nmU6FJb1mizH8p0wp-145" vertex="1">
          <mxGeometry y="180" width="270" height="30" as="geometry" />
        </mxCell>
        <mxCell id="sj1nmU6FJb1mizH8p0wp-152" value="output" style="text;strokeColor=none;fillColor=none;align=left;verticalAlign=middle;spacingLeft=4;spacingRight=4;overflow=hidden;points=[[0,0.5],[1,0.5]];portConstraint=eastwest;rotatable=0;whiteSpace=wrap;html=1;" parent="sj1nmU6FJb1mizH8p0wp-145" vertex="1">
          <mxGeometry y="210" width="270" height="30" as="geometry" />
        </mxCell>
        <mxCell id="sj1nmU6FJb1mizH8p0wp-158" value="" style="group" parent="1" vertex="1" connectable="0">
          <mxGeometry x="740" y="1424" width="660.78" height="380" as="geometry" />
        </mxCell>
        <mxCell id="sj1nmU6FJb1mizH8p0wp-156" value="" style="shape=image;verticalLabelPosition=bottom;labelBackgroundColor=default;verticalAlign=top;aspect=fixed;imageAspect=0;image=https://perso.telecom-paristech.fr/sharrock/courses/hadoop%20mapreduce%20from%20scratch/image1.png;" parent="sj1nmU6FJb1mizH8p0wp-158" vertex="1">
          <mxGeometry width="660" height="306.36" as="geometry" />
        </mxCell>
        <mxCell id="sj1nmU6FJb1mizH8p0wp-157" value="" style="shape=image;verticalLabelPosition=bottom;labelBackgroundColor=default;verticalAlign=top;aspect=fixed;imageAspect=0;image=https://perso.telecom-paristech.fr/sharrock/courses/hadoop%20mapreduce%20from%20scratch/image2.png;" parent="sj1nmU6FJb1mizH8p0wp-158" vertex="1">
          <mxGeometry y="300" width="660.78" height="80" as="geometry" />
        </mxCell>
        <mxCell id="sj1nmU6FJb1mizH8p0wp-159" value="" style="endArrow=none;html=1;rounded=0;strokeWidth=4;startArrow=classic;startFill=1;endFill=0;" parent="1" edge="1">
          <mxGeometry width="50" height="50" relative="1" as="geometry">
            <mxPoint x="251" y="660" as="sourcePoint" />
            <mxPoint x="619" y="660" as="targetPoint" />
          </mxGeometry>
        </mxCell>
        <mxCell id="sj1nmU6FJb1mizH8p0wp-160" value="&lt;font style=&quot;font-size: 11px;&quot;&gt;Shuffle1 finished&lt;/font&gt;" style="rounded=1;whiteSpace=wrap;html=1;fillColor=#d5e8d4;strokeColor=#82b366;" parent="1" vertex="1">
          <mxGeometry x="380" y="640" width="86" height="40" as="geometry" />
        </mxCell>
        <mxCell id="sj1nmU6FJb1mizH8p0wp-161" value="" style="endArrow=none;html=1;rounded=0;strokeWidth=4;startArrow=classic;startFill=1;endFill=0;" parent="1" edge="1">
          <mxGeometry width="50" height="50" relative="1" as="geometry">
            <mxPoint y="660" as="sourcePoint" />
            <mxPoint x="230" y="660" as="targetPoint" />
          </mxGeometry>
        </mxCell>
        <mxCell id="sj1nmU6FJb1mizH8p0wp-162" value="" style="endArrow=classic;html=1;rounded=0;strokeWidth=4;" parent="1" edge="1">
          <mxGeometry width="50" height="50" relative="1" as="geometry">
            <mxPoint x="251" y="753" as="sourcePoint" />
            <mxPoint x="619" y="753" as="targetPoint" />
          </mxGeometry>
        </mxCell>
        <mxCell id="sj1nmU6FJb1mizH8p0wp-163" value="Start Reduce1" style="rounded=1;whiteSpace=wrap;html=1;" parent="1" vertex="1">
          <mxGeometry x="380" y="733" width="86" height="40" as="geometry" />
        </mxCell>
        <mxCell id="sj1nmU6FJb1mizH8p0wp-164" value="&lt;font style=&quot;font-size: 11px;&quot;&gt;Slave Shuffle1 Status&lt;/font&gt;" style="swimlane;fontStyle=0;childLayout=stackLayout;horizontal=1;startSize=20;fillColor=#d5e8d4;horizontalStack=0;resizeParent=1;resizeParentMax=0;resizeLast=0;collapsible=1;marginBottom=0;html=1;strokeColor=#82b366;" parent="1" vertex="1">
          <mxGeometry x="-110" y="620" width="110" height="68" as="geometry" />
        </mxCell>
        <mxCell id="sj1nmU6FJb1mizH8p0wp-165" value="Slave1: OK" style="text;strokeColor=#82b366;fillColor=#d5e8d4;align=left;verticalAlign=middle;spacingLeft=4;spacingRight=4;overflow=hidden;rotatable=0;points=[[0,0.5],[1,0.5]];portConstraint=eastwest;whiteSpace=wrap;html=1;fontSize=10;" parent="sj1nmU6FJb1mizH8p0wp-164" vertex="1">
          <mxGeometry y="20" width="110" height="16" as="geometry" />
        </mxCell>
        <mxCell id="sj1nmU6FJb1mizH8p0wp-166" value="Slave2: NOT OK" style="text;strokeColor=#82b366;fillColor=#d5e8d4;align=left;verticalAlign=middle;spacingLeft=4;spacingRight=4;overflow=hidden;rotatable=0;points=[[0,0.5],[1,0.5]];portConstraint=eastwest;whiteSpace=wrap;html=1;fontSize=10;" parent="sj1nmU6FJb1mizH8p0wp-164" vertex="1">
          <mxGeometry y="36" width="110" height="16" as="geometry" />
        </mxCell>
        <mxCell id="sj1nmU6FJb1mizH8p0wp-167" value="..." style="text;strokeColor=#82b366;fillColor=#d5e8d4;align=center;verticalAlign=middle;spacingLeft=4;spacingRight=4;overflow=hidden;rotatable=0;points=[[0,0.5],[1,0.5]];portConstraint=eastwest;whiteSpace=wrap;html=1;" parent="sj1nmU6FJb1mizH8p0wp-164" vertex="1">
          <mxGeometry y="52" width="110" height="16" as="geometry" />
        </mxCell>
        <mxCell id="sj1nmU6FJb1mizH8p0wp-168" value="Update Shuffle1&amp;nbsp;&lt;div&gt;Status&lt;/div&gt;" style="shape=hexagon;perimeter=hexagonPerimeter2;whiteSpace=wrap;html=1;fixedSize=1;fillColor=#d5e8d4;strokeColor=#82b366;" parent="1" vertex="1">
          <mxGeometry x="80" y="635" width="80" height="50" as="geometry" />
        </mxCell>
        <mxCell id="sj1nmU6FJb1mizH8p0wp-169" value="&lt;font style=&quot;font-size: 10px;&quot;&gt;All&amp;nbsp;&lt;/font&gt;&lt;div&gt;&lt;font style=&quot;font-size: 10px;&quot;&gt;Shuffles&amp;nbsp;&lt;/font&gt;&lt;/div&gt;&lt;div&gt;&lt;font style=&quot;font-size: 10px;&quot;&gt;OK?&lt;/font&gt;&lt;/div&gt;" style="rhombus;whiteSpace=wrap;html=1;verticalAlign=middle;fillColor=#d5e8d4;strokeColor=#82b366;" parent="1" vertex="1">
          <mxGeometry x="-90" y="718.93" width="70" height="68.13" as="geometry" />
        </mxCell>
        <mxCell id="sj1nmU6FJb1mizH8p0wp-170" style="edgeStyle=orthogonalEdgeStyle;rounded=0;orthogonalLoop=1;jettySize=auto;html=1;exitX=1;exitY=0.5;exitDx=0;exitDy=0;strokeWidth=4;entryX=0;entryY=0.402;entryDx=0;entryDy=0;entryPerimeter=0;" parent="1" source="sj1nmU6FJb1mizH8p0wp-169" edge="1">
          <mxGeometry relative="1" as="geometry">
            <mxPoint x="230" y="753" as="targetPoint" />
          </mxGeometry>
        </mxCell>
        <mxCell id="sj1nmU6FJb1mizH8p0wp-171" value="&amp;nbsp;Yes&amp;nbsp;" style="edgeLabel;html=1;align=center;verticalAlign=middle;resizable=0;points=[];" parent="sj1nmU6FJb1mizH8p0wp-170" vertex="1" connectable="0">
          <mxGeometry x="-0.0337" y="1" relative="1" as="geometry">
            <mxPoint as="offset" />
          </mxGeometry>
        </mxCell>
        <mxCell id="sj1nmU6FJb1mizH8p0wp-175" style="edgeStyle=orthogonalEdgeStyle;rounded=0;orthogonalLoop=1;jettySize=auto;html=1;entryX=0.5;entryY=0;entryDx=0;entryDy=0;strokeWidth=4;" parent="1" edge="1">
          <mxGeometry relative="1" as="geometry">
            <mxPoint x="-55.269999999999996" y="688" as="sourcePoint" />
            <mxPoint x="-55.269999999999996" y="719" as="targetPoint" />
          </mxGeometry>
        </mxCell>
        <mxCell id="sj1nmU6FJb1mizH8p0wp-183" value="TODO" style="swimlane;fontStyle=0;childLayout=stackLayout;horizontal=1;startSize=30;horizontalStack=0;resizeParent=1;resizeParentMax=0;resizeLast=0;collapsible=1;marginBottom=0;whiteSpace=wrap;html=1;" parent="1" vertex="1">
          <mxGeometry x="1250" y="524" width="330" height="150" as="geometry" />
        </mxCell>
        <mxCell id="sj1nmU6FJb1mizH8p0wp-184" value="S&#39;assurer que tous les map ont bien été REÇUS par les target (peut être une réponse des target avant de communiquer au Master que le Shuffle a été effectivement terminé)" style="text;strokeColor=none;fillColor=none;align=left;verticalAlign=middle;spacingLeft=4;spacingRight=4;overflow=hidden;points=[[0,0.5],[1,0.5]];portConstraint=eastwest;rotatable=0;whiteSpace=wrap;html=1;" parent="sj1nmU6FJb1mizH8p0wp-183" vertex="1">
          <mxGeometry y="30" width="330" height="60" as="geometry" />
        </mxCell>
        <mxCell id="sj1nmU6FJb1mizH8p0wp-185" value="TODO 2" style="text;strokeColor=none;fillColor=none;align=left;verticalAlign=middle;spacingLeft=4;spacingRight=4;overflow=hidden;points=[[0,0.5],[1,0.5]];portConstraint=eastwest;rotatable=0;whiteSpace=wrap;html=1;" parent="sj1nmU6FJb1mizH8p0wp-183" vertex="1">
          <mxGeometry y="90" width="330" height="30" as="geometry" />
        </mxCell>
        <mxCell id="sj1nmU6FJb1mizH8p0wp-186" value="TODO 3" style="text;strokeColor=none;fillColor=none;align=left;verticalAlign=middle;spacingLeft=4;spacingRight=4;overflow=hidden;points=[[0,0.5],[1,0.5]];portConstraint=eastwest;rotatable=0;whiteSpace=wrap;html=1;" parent="sj1nmU6FJb1mizH8p0wp-183" vertex="1">
          <mxGeometry y="120" width="330" height="30" as="geometry" />
        </mxCell>
        <mxCell id="sj1nmU6FJb1mizH8p0wp-187" style="edgeStyle=orthogonalEdgeStyle;rounded=0;orthogonalLoop=1;jettySize=auto;html=1;strokeWidth=4;dashed=1;" parent="1" edge="1">
          <mxGeometry relative="1" as="geometry">
            <mxPoint x="930" y="840" as="targetPoint" />
            <mxPoint x="1060" y="630" as="sourcePoint" />
            <Array as="points">
              <mxPoint x="1060" y="840" />
            </Array>
          </mxGeometry>
        </mxCell>
        <mxCell id="sj1nmU6FJb1mizH8p0wp-188" value="&lt;div&gt;&lt;font style=&quot;font-size: 9px;&quot;&gt;&lt;br&gt;&lt;/font&gt;&lt;/div&gt;&lt;font style=&quot;font-size: 9px;&quot;&gt;&lt;div&gt;&lt;font style=&quot;font-size: 9px;&quot;&gt;&lt;br&gt;&lt;/font&gt;&lt;/div&gt;&lt;div&gt;&lt;font style=&quot;font-size: 9px;&quot;&gt;&lt;br&gt;&lt;/font&gt;&lt;/div&gt;&lt;div&gt;&lt;font style=&quot;font-size: 9px;&quot;&gt;&lt;br&gt;&lt;/font&gt;&lt;/div&gt;&lt;div&gt;&lt;font style=&quot;font-size: 9px;&quot;&gt;&lt;br&gt;&lt;/font&gt;&lt;/div&gt;&lt;div&gt;&lt;font style=&quot;font-size: 9px;&quot;&gt;&lt;br&gt;&lt;/font&gt;&lt;/div&gt;&lt;div&gt;&lt;font style=&quot;font-size: 9px;&quot;&gt;&lt;br&gt;&lt;/font&gt;&lt;/div&gt;&lt;div&gt;&lt;font style=&quot;font-size: 9px;&quot;&gt;&lt;br&gt;&lt;/font&gt;&lt;/div&gt;&lt;div&gt;&lt;font style=&quot;font-size: 9px;&quot;&gt;&lt;br&gt;&lt;/font&gt;&lt;/div&gt;&lt;div&gt;&lt;font style=&quot;font-size: 9px;&quot;&gt;&lt;br&gt;&lt;/font&gt;&lt;/div&gt;&lt;div&gt;&lt;font style=&quot;font-size: 9px;&quot;&gt;&lt;br&gt;&lt;/font&gt;&lt;/div&gt;&lt;div&gt;&lt;font style=&quot;font-size: 9px;&quot;&gt;&lt;br&gt;&lt;/font&gt;&lt;/div&gt;&lt;div&gt;&lt;font style=&quot;font-size: 9px;&quot;&gt;&lt;br&gt;&lt;/font&gt;&lt;/div&gt;&amp;nbsp; &amp;nbsp; &amp;nbsp; &amp;nbsp; &amp;nbsp; &amp;nbsp; &amp;nbsp;Map&lt;/font&gt;" style="shadow=0;strokeWidth=1;rounded=1;absoluteArcSize=1;arcSize=2;labelPosition=center;verticalLabelPosition=middle;align=center;verticalAlign=bottom;spacingLeft=0;fontSize=12;whiteSpace=wrap;spacingBottom=-1;html=1;" parent="1" vertex="1">
          <mxGeometry x="860" y="812.06" width="40" height="48" as="geometry" />
        </mxCell>
        <mxCell id="sj1nmU6FJb1mizH8p0wp-189" value="" style="sketch=0;dashed=0;connectable=0;html=1;fillColor=#757575;strokeColor=none;shape=mxgraph.gcp2.list;part=1;" parent="sj1nmU6FJb1mizH8p0wp-188" vertex="1">
          <mxGeometry x="0.5" width="29.5" height="30" relative="1" as="geometry">
            <mxPoint x="-15" y="5" as="offset" />
          </mxGeometry>
        </mxCell>
        <mxCell id="sj1nmU6FJb1mizH8p0wp-190" value="&lt;div&gt;&lt;font style=&quot;font-size: 9px;&quot;&gt;&lt;br&gt;&lt;/font&gt;&lt;/div&gt;&lt;font style=&quot;font-size: 9px;&quot;&gt;&lt;div&gt;&lt;font style=&quot;font-size: 9px;&quot;&gt;&lt;br&gt;&lt;/font&gt;&lt;/div&gt;&lt;div&gt;&lt;font style=&quot;font-size: 9px;&quot;&gt;&lt;br&gt;&lt;/font&gt;&lt;/div&gt;&lt;div&gt;&lt;font style=&quot;font-size: 9px;&quot;&gt;&lt;br&gt;&lt;/font&gt;&lt;/div&gt;&lt;div&gt;&lt;font style=&quot;font-size: 9px;&quot;&gt;&lt;br&gt;&lt;/font&gt;&lt;/div&gt;&lt;div&gt;&lt;font style=&quot;font-size: 9px;&quot;&gt;&lt;br&gt;&lt;/font&gt;&lt;/div&gt;&lt;div&gt;&lt;font style=&quot;font-size: 9px;&quot;&gt;&lt;br&gt;&lt;/font&gt;&lt;/div&gt;&lt;div&gt;&lt;font style=&quot;font-size: 9px;&quot;&gt;&lt;br&gt;&lt;/font&gt;&lt;/div&gt;&lt;div&gt;&lt;font style=&quot;font-size: 9px;&quot;&gt;&lt;br&gt;&lt;/font&gt;&lt;/div&gt;&lt;div&gt;&lt;font style=&quot;font-size: 9px;&quot;&gt;&lt;br&gt;&lt;/font&gt;&lt;/div&gt;&lt;div&gt;&lt;font style=&quot;font-size: 9px;&quot;&gt;&lt;br&gt;&lt;/font&gt;&lt;/div&gt;&lt;div&gt;&lt;font style=&quot;font-size: 9px;&quot;&gt;&lt;br&gt;&lt;/font&gt;&lt;/div&gt;&lt;div&gt;&lt;font style=&quot;font-size: 9px;&quot;&gt;&lt;br&gt;&lt;/font&gt;&lt;/div&gt;&amp;nbsp; &amp;nbsp; &amp;nbsp; &amp;nbsp; &amp;nbsp; &amp;nbsp; &amp;nbsp;Map&lt;/font&gt;" style="shadow=0;strokeWidth=1;rounded=1;absoluteArcSize=1;arcSize=2;labelPosition=center;verticalLabelPosition=middle;align=center;verticalAlign=bottom;spacingLeft=0;fontSize=12;whiteSpace=wrap;spacingBottom=-1;html=1;" parent="1" vertex="1">
          <mxGeometry x="880" y="790" width="40" height="48" as="geometry" />
        </mxCell>
        <mxCell id="sj1nmU6FJb1mizH8p0wp-191" value="" style="sketch=0;dashed=0;connectable=0;html=1;fillColor=#757575;strokeColor=none;shape=mxgraph.gcp2.list;part=1;" parent="sj1nmU6FJb1mizH8p0wp-190" vertex="1">
          <mxGeometry x="0.5" width="29.5" height="30" relative="1" as="geometry">
            <mxPoint x="-15" y="5" as="offset" />
          </mxGeometry>
        </mxCell>
        <mxCell id="sj1nmU6FJb1mizH8p0wp-192" value="" style="endArrow=classic;html=1;rounded=0;strokeWidth=4;entryX=0.5;entryY=0;entryDx=0;entryDy=0;" parent="1" target="sj1nmU6FJb1mizH8p0wp-61" edge="1">
          <mxGeometry width="50" height="50" relative="1" as="geometry">
            <mxPoint x="640" y="753" as="sourcePoint" />
            <mxPoint x="880" y="780" as="targetPoint" />
            <Array as="points">
              <mxPoint x="760" y="753" />
              <mxPoint x="760" y="760" />
            </Array>
          </mxGeometry>
        </mxCell>
        <mxCell id="sj1nmU6FJb1mizH8p0wp-194" value="&lt;font style=&quot;font-size: 11px;&quot;&gt;Slave Reduce1 Status&lt;/font&gt;" style="swimlane;fontStyle=0;childLayout=stackLayout;horizontal=1;startSize=20;fillColor=none;horizontalStack=0;resizeParent=1;resizeParentMax=0;resizeLast=0;collapsible=1;marginBottom=0;html=1;" parent="1" vertex="1">
          <mxGeometry x="-150" y="812.06" width="150" height="68" as="geometry" />
        </mxCell>
        <mxCell id="sj1nmU6FJb1mizH8p0wp-195" value="&lt;font style=&quot;font-size: 9px;&quot;&gt;Slave1: OK / counts: {n11, n12, ...}&lt;/font&gt;" style="text;strokeColor=default;fillColor=none;align=left;verticalAlign=middle;spacingLeft=4;spacingRight=4;overflow=hidden;rotatable=0;points=[[0,0.5],[1,0.5]];portConstraint=eastwest;whiteSpace=wrap;html=1;fontSize=10;" parent="sj1nmU6FJb1mizH8p0wp-194" vertex="1">
          <mxGeometry y="20" width="150" height="16" as="geometry" />
        </mxCell>
        <mxCell id="sj1nmU6FJb1mizH8p0wp-196" value="&lt;span style=&quot;font-size: 9px;&quot;&gt;Slave2: OK / counts: {n21, n22, ...}&lt;/span&gt;" style="text;strokeColor=default;fillColor=none;align=left;verticalAlign=middle;spacingLeft=4;spacingRight=4;overflow=hidden;rotatable=0;points=[[0,0.5],[1,0.5]];portConstraint=eastwest;whiteSpace=wrap;html=1;fontSize=10;" parent="sj1nmU6FJb1mizH8p0wp-194" vertex="1">
          <mxGeometry y="36" width="150" height="16" as="geometry" />
        </mxCell>
        <mxCell id="sj1nmU6FJb1mizH8p0wp-197" value="..." style="text;strokeColor=default;fillColor=none;align=center;verticalAlign=middle;spacingLeft=4;spacingRight=4;overflow=hidden;rotatable=0;points=[[0,0.5],[1,0.5]];portConstraint=eastwest;whiteSpace=wrap;html=1;" parent="sj1nmU6FJb1mizH8p0wp-194" vertex="1">
          <mxGeometry y="52" width="150" height="16" as="geometry" />
        </mxCell>
        <mxCell id="sj1nmU6FJb1mizH8p0wp-198" value="&lt;font style=&quot;font-size: 10px;&quot;&gt;All&amp;nbsp;&lt;/font&gt;&lt;div&gt;&lt;font style=&quot;font-size: 10px;&quot;&gt;Shuffles&amp;nbsp;&lt;/font&gt;&lt;/div&gt;&lt;div&gt;&lt;font style=&quot;font-size: 10px;&quot;&gt;OK?&lt;/font&gt;&lt;/div&gt;" style="rhombus;whiteSpace=wrap;html=1;verticalAlign=middle;" parent="1" vertex="1">
          <mxGeometry x="-90" y="910" width="70" height="68.13" as="geometry" />
        </mxCell>
        <mxCell id="sj1nmU6FJb1mizH8p0wp-199" style="edgeStyle=orthogonalEdgeStyle;rounded=0;orthogonalLoop=1;jettySize=auto;html=1;exitX=1;exitY=0.5;exitDx=0;exitDy=0;strokeWidth=4;" parent="1" edge="1">
          <mxGeometry relative="1" as="geometry">
            <mxPoint x="80" y="944" as="targetPoint" />
            <mxPoint x="-20" y="943.66" as="sourcePoint" />
            <Array as="points">
              <mxPoint x="60" y="944" />
            </Array>
          </mxGeometry>
        </mxCell>
        <mxCell id="sj1nmU6FJb1mizH8p0wp-200" value="&amp;nbsp;Yes&amp;nbsp;" style="edgeLabel;html=1;align=center;verticalAlign=middle;resizable=0;points=[];" parent="sj1nmU6FJb1mizH8p0wp-199" vertex="1" connectable="0">
          <mxGeometry x="-0.0337" y="1" relative="1" as="geometry">
            <mxPoint as="offset" />
          </mxGeometry>
        </mxCell>
        <mxCell id="sj1nmU6FJb1mizH8p0wp-201" value="Make&lt;div&gt;Reduce2&lt;/div&gt;&lt;div&gt;Groups&lt;/div&gt;" style="shape=hexagon;perimeter=hexagonPerimeter2;whiteSpace=wrap;html=1;fixedSize=1;" parent="1" vertex="1">
          <mxGeometry x="80" y="919.0699999999999" width="80" height="50" as="geometry" />
        </mxCell>
        <mxCell id="sj1nmU6FJb1mizH8p0wp-202" style="edgeStyle=orthogonalEdgeStyle;rounded=0;orthogonalLoop=1;jettySize=auto;html=1;entryX=0.5;entryY=0;entryDx=0;entryDy=0;strokeWidth=4;" parent="1" edge="1">
          <mxGeometry relative="1" as="geometry">
            <mxPoint x="-55.4" y="880.06" as="sourcePoint" />
            <mxPoint x="-55.4" y="911.06" as="targetPoint" />
          </mxGeometry>
        </mxCell>
        <mxCell id="sj1nmU6FJb1mizH8p0wp-203" value="" style="endArrow=classic;html=1;rounded=0;strokeWidth=4;exitX=1;exitY=0.5;exitDx=0;exitDy=0;" parent="1" edge="1">
          <mxGeometry width="50" height="50" relative="1" as="geometry">
            <mxPoint x="160.00000000000023" y="943.9899999999999" as="sourcePoint" />
            <mxPoint x="230" y="943.74" as="targetPoint" />
          </mxGeometry>
        </mxCell>
        <mxCell id="sj1nmU6FJb1mizH8p0wp-207" value="&lt;div style=&quot;line-height: 110%;&quot;&gt;&lt;span style=&quot;font-size: 9px; background-color: initial;&quot;&gt;Unsorted&lt;/span&gt;&lt;br&gt;&lt;/div&gt;&lt;div style=&quot;line-height: 10%;&quot;&gt;&lt;font style=&quot;font-size: 9px;&quot;&gt;Chunk&lt;/font&gt;&lt;/div&gt;" style="shadow=0;strokeWidth=1;rounded=1;absoluteArcSize=1;arcSize=2;labelPosition=center;verticalLabelPosition=middle;align=center;verticalAlign=bottom;spacingLeft=0;fontSize=12;whiteSpace=wrap;spacingBottom=2;html=1;" parent="1" vertex="1">
          <mxGeometry x="1020" y="944.5699999999999" width="40" height="55.43" as="geometry" />
        </mxCell>
        <mxCell id="sj1nmU6FJb1mizH8p0wp-208" value="" style="sketch=0;dashed=0;connectable=0;html=1;fillColor=#757575;strokeColor=none;shape=mxgraph.gcp2.list;part=1;" parent="sj1nmU6FJb1mizH8p0wp-207" vertex="1">
          <mxGeometry x="0.5" width="29.5" height="30" relative="1" as="geometry">
            <mxPoint x="-15" y="5" as="offset" />
          </mxGeometry>
        </mxCell>
        <mxCell id="sj1nmU6FJb1mizH8p0wp-211" value="" style="endArrow=classic;html=1;rounded=0;strokeWidth=4;" parent="1" edge="1">
          <mxGeometry width="50" height="50" relative="1" as="geometry">
            <mxPoint x="640" y="943.6300000000001" as="sourcePoint" />
            <mxPoint x="990" y="944" as="targetPoint" />
          </mxGeometry>
        </mxCell>
        <mxCell id="sj1nmU6FJb1mizH8p0wp-219" value="&amp;nbsp;Send unsorted&lt;div&gt;chunks&amp;nbsp;&lt;/div&gt;&lt;div&gt;to the right&lt;/div&gt;&lt;div&gt;groups&lt;/div&gt;" style="edgeLabel;html=1;align=center;verticalAlign=middle;resizable=0;points=[];" parent="sj1nmU6FJb1mizH8p0wp-211" vertex="1" connectable="0">
          <mxGeometry x="0.477" y="-1" relative="1" as="geometry">
            <mxPoint x="-9" y="-1" as="offset" />
          </mxGeometry>
        </mxCell>
        <mxCell id="sj1nmU6FJb1mizH8p0wp-212" value="Shuffle2" style="shape=hexagon;perimeter=hexagonPerimeter2;whiteSpace=wrap;html=1;fixedSize=1;" parent="1" vertex="1">
          <mxGeometry x="720" y="924.5699999999999" width="80" height="39" as="geometry" />
        </mxCell>
        <mxCell id="sj1nmU6FJb1mizH8p0wp-222" value="" style="html=1;verticalLabelPosition=bottom;align=center;labelBackgroundColor=#ffffff;verticalAlign=top;strokeWidth=2;strokeColor=#000000;shadow=0;dashed=0;shape=mxgraph.ios7.icons.pointer;" parent="1" vertex="1">
          <mxGeometry x="990" y="924.7899999999998" width="50" height="51.5" as="geometry" />
        </mxCell>
        <mxCell id="sj1nmU6FJb1mizH8p0wp-223" style="edgeStyle=orthogonalEdgeStyle;rounded=0;orthogonalLoop=1;jettySize=auto;html=1;strokeWidth=4;" parent="1" edge="1">
          <mxGeometry relative="1" as="geometry">
            <mxPoint x="640" y="1040" as="targetPoint" />
            <mxPoint x="1000" y="990" as="sourcePoint" />
            <Array as="points">
              <mxPoint x="1000" y="1040" />
            </Array>
          </mxGeometry>
        </mxCell>
        <mxCell id="sj1nmU6FJb1mizH8p0wp-224" value="" style="endArrow=none;html=1;rounded=0;strokeWidth=4;startArrow=classic;startFill=1;endFill=0;" parent="1" source="sj1nmU6FJb1mizH8p0wp-234" edge="1">
          <mxGeometry width="50" height="50" relative="1" as="geometry">
            <mxPoint x="251" y="1040" as="sourcePoint" />
            <mxPoint x="619" y="1040" as="targetPoint" />
          </mxGeometry>
        </mxCell>
        <mxCell id="sj1nmU6FJb1mizH8p0wp-225" value="" style="endArrow=none;html=1;rounded=0;strokeWidth=4;startArrow=classic;startFill=1;endFill=0;" parent="1" edge="1">
          <mxGeometry width="50" height="50" relative="1" as="geometry">
            <mxPoint y="1040" as="sourcePoint" />
            <mxPoint x="230" y="1040" as="targetPoint" />
          </mxGeometry>
        </mxCell>
        <mxCell id="sj1nmU6FJb1mizH8p0wp-226" value="&lt;font style=&quot;font-size: 11px;&quot;&gt;Slave Shuffle2 Status&lt;/font&gt;" style="swimlane;fontStyle=0;childLayout=stackLayout;horizontal=1;startSize=20;fillColor=none;horizontalStack=0;resizeParent=1;resizeParentMax=0;resizeLast=0;collapsible=1;marginBottom=0;html=1;" parent="1" vertex="1">
          <mxGeometry x="-110" y="1000" width="110" height="68" as="geometry" />
        </mxCell>
        <mxCell id="sj1nmU6FJb1mizH8p0wp-227" value="Slave1: OK" style="text;strokeColor=default;fillColor=none;align=left;verticalAlign=middle;spacingLeft=4;spacingRight=4;overflow=hidden;rotatable=0;points=[[0,0.5],[1,0.5]];portConstraint=eastwest;whiteSpace=wrap;html=1;fontSize=10;" parent="sj1nmU6FJb1mizH8p0wp-226" vertex="1">
          <mxGeometry y="20" width="110" height="16" as="geometry" />
        </mxCell>
        <mxCell id="sj1nmU6FJb1mizH8p0wp-228" value="Slave2: NOT OK" style="text;strokeColor=default;fillColor=none;align=left;verticalAlign=middle;spacingLeft=4;spacingRight=4;overflow=hidden;rotatable=0;points=[[0,0.5],[1,0.5]];portConstraint=eastwest;whiteSpace=wrap;html=1;fontSize=10;" parent="sj1nmU6FJb1mizH8p0wp-226" vertex="1">
          <mxGeometry y="36" width="110" height="16" as="geometry" />
        </mxCell>
        <mxCell id="sj1nmU6FJb1mizH8p0wp-229" value="..." style="text;strokeColor=default;fillColor=none;align=center;verticalAlign=middle;spacingLeft=4;spacingRight=4;overflow=hidden;rotatable=0;points=[[0,0.5],[1,0.5]];portConstraint=eastwest;whiteSpace=wrap;html=1;" parent="sj1nmU6FJb1mizH8p0wp-226" vertex="1">
          <mxGeometry y="52" width="110" height="16" as="geometry" />
        </mxCell>
        <mxCell id="sj1nmU6FJb1mizH8p0wp-230" value="Update Shuffle2&amp;nbsp;&lt;div&gt;Status&lt;/div&gt;" style="shape=hexagon;perimeter=hexagonPerimeter2;whiteSpace=wrap;html=1;fixedSize=1;" parent="1" vertex="1">
          <mxGeometry x="80" y="1015" width="80" height="50" as="geometry" />
        </mxCell>
        <mxCell id="sj1nmU6FJb1mizH8p0wp-231" value="&lt;font style=&quot;font-size: 10px;&quot;&gt;All&amp;nbsp;&lt;/font&gt;&lt;div&gt;&lt;font style=&quot;font-size: 10px;&quot;&gt;Shuffles&amp;nbsp;&lt;/font&gt;&lt;/div&gt;&lt;div&gt;&lt;font style=&quot;font-size: 10px;&quot;&gt;OK?&lt;/font&gt;&lt;/div&gt;" style="rhombus;whiteSpace=wrap;html=1;verticalAlign=middle;" parent="1" vertex="1">
          <mxGeometry x="-90" y="1098.9299999999998" width="70" height="68.13" as="geometry" />
        </mxCell>
        <mxCell id="sj1nmU6FJb1mizH8p0wp-232" style="edgeStyle=orthogonalEdgeStyle;rounded=0;orthogonalLoop=1;jettySize=auto;html=1;exitX=1;exitY=0.5;exitDx=0;exitDy=0;strokeWidth=4;entryX=0;entryY=0.402;entryDx=0;entryDy=0;entryPerimeter=0;" parent="1" source="sj1nmU6FJb1mizH8p0wp-231" edge="1">
          <mxGeometry relative="1" as="geometry">
            <mxPoint x="230" y="1133" as="targetPoint" />
          </mxGeometry>
        </mxCell>
        <mxCell id="sj1nmU6FJb1mizH8p0wp-233" value="&amp;nbsp;Yes&amp;nbsp;" style="edgeLabel;html=1;align=center;verticalAlign=middle;resizable=0;points=[];" parent="sj1nmU6FJb1mizH8p0wp-232" vertex="1" connectable="0">
          <mxGeometry x="-0.0337" y="1" relative="1" as="geometry">
            <mxPoint as="offset" />
          </mxGeometry>
        </mxCell>
        <mxCell id="sj1nmU6FJb1mizH8p0wp-235" value="" style="endArrow=none;html=1;rounded=0;strokeWidth=4;startArrow=classic;startFill=1;endFill=0;" parent="1" target="sj1nmU6FJb1mizH8p0wp-234" edge="1">
          <mxGeometry width="50" height="50" relative="1" as="geometry">
            <mxPoint x="251" y="1040" as="sourcePoint" />
            <mxPoint x="619" y="1040" as="targetPoint" />
          </mxGeometry>
        </mxCell>
        <mxCell id="sj1nmU6FJb1mizH8p0wp-234" value="Shuffle2 finished" style="rounded=1;whiteSpace=wrap;html=1;" parent="1" vertex="1">
          <mxGeometry x="380" y="1020" width="86" height="40" as="geometry" />
        </mxCell>
        <mxCell id="sj1nmU6FJb1mizH8p0wp-236" style="edgeStyle=orthogonalEdgeStyle;rounded=0;orthogonalLoop=1;jettySize=auto;html=1;entryX=0.5;entryY=0;entryDx=0;entryDy=0;strokeWidth=4;" parent="1" edge="1">
          <mxGeometry relative="1" as="geometry">
            <mxPoint x="-55.42" y="1068" as="sourcePoint" />
            <mxPoint x="-55.42" y="1099" as="targetPoint" />
          </mxGeometry>
        </mxCell>
        <mxCell id="sj1nmU6FJb1mizH8p0wp-240" value="" style="endArrow=classic;html=1;rounded=0;strokeWidth=4;" parent="1" edge="1">
          <mxGeometry width="50" height="50" relative="1" as="geometry">
            <mxPoint x="860" y="1221.47" as="sourcePoint" />
            <mxPoint x="640" y="1221.47" as="targetPoint" />
          </mxGeometry>
        </mxCell>
        <mxCell id="sj1nmU6FJb1mizH8p0wp-241" value="Reduce2" style="shape=hexagon;perimeter=hexagonPerimeter2;whiteSpace=wrap;html=1;fixedSize=1;" parent="1" vertex="1">
          <mxGeometry x="720" y="1197.06" width="80" height="50" as="geometry" />
        </mxCell>
        <mxCell id="sj1nmU6FJb1mizH8p0wp-242" value="" style="endArrow=none;html=1;rounded=0;strokeWidth=4;startArrow=classic;startFill=1;endFill=0;" parent="1" edge="1">
          <mxGeometry width="50" height="50" relative="1" as="geometry">
            <mxPoint x="251" y="1222.06" as="sourcePoint" />
            <mxPoint x="620" y="1222.06" as="targetPoint" />
          </mxGeometry>
        </mxCell>
        <mxCell id="sj1nmU6FJb1mizH8p0wp-243" value="Send sorted chunks" style="rounded=1;whiteSpace=wrap;html=1;" parent="1" vertex="1">
          <mxGeometry x="380" y="1202.06" width="86" height="40" as="geometry" />
        </mxCell>
        <mxCell id="sj1nmU6FJb1mizH8p0wp-244" value="" style="endArrow=none;html=1;rounded=0;strokeWidth=4;startArrow=classic;startFill=1;endFill=0;" parent="1" edge="1">
          <mxGeometry width="50" height="50" relative="1" as="geometry">
            <mxPoint x="-110" y="1220" as="sourcePoint" />
            <mxPoint x="230" y="1221.73" as="targetPoint" />
          </mxGeometry>
        </mxCell>
        <mxCell id="sj1nmU6FJb1mizH8p0wp-245" value="Merge&lt;div&gt;sorted&lt;/div&gt;&lt;div&gt;chunks&lt;/div&gt;" style="shape=hexagon;perimeter=hexagonPerimeter2;whiteSpace=wrap;html=1;fixedSize=1;" parent="1" vertex="1">
          <mxGeometry x="80" y="1197.06" width="80" height="50" as="geometry" />
        </mxCell>
        <mxCell id="sj1nmU6FJb1mizH8p0wp-246" style="edgeStyle=orthogonalEdgeStyle;rounded=0;orthogonalLoop=1;jettySize=auto;html=1;strokeWidth=4;dashed=1;" parent="1" edge="1">
          <mxGeometry relative="1" as="geometry">
            <mxPoint x="930" y="1220" as="targetPoint" />
            <mxPoint x="1040" y="1010" as="sourcePoint" />
            <Array as="points">
              <mxPoint x="1040" y="1010" />
              <mxPoint x="1040" y="1220" />
            </Array>
          </mxGeometry>
        </mxCell>
        <mxCell id="sj1nmU6FJb1mizH8p0wp-247" value="" style="endArrow=classic;html=1;rounded=0;strokeWidth=4;entryX=0.5;entryY=0;entryDx=0;entryDy=0;" parent="1" target="sj1nmU6FJb1mizH8p0wp-241" edge="1">
          <mxGeometry width="50" height="50" relative="1" as="geometry">
            <mxPoint x="640" y="1133" as="sourcePoint" />
            <mxPoint x="880" y="1160" as="targetPoint" />
            <Array as="points">
              <mxPoint x="760" y="1133" />
              <mxPoint x="760" y="1140" />
            </Array>
          </mxGeometry>
        </mxCell>
        <mxCell id="sj1nmU6FJb1mizH8p0wp-248" value="&lt;div style=&quot;line-height: 110%;&quot;&gt;&lt;span style=&quot;font-size: 9px; background-color: initial;&quot;&gt;Unsorted&lt;/span&gt;&lt;br&gt;&lt;/div&gt;&lt;div style=&quot;line-height: 10%;&quot;&gt;&lt;font style=&quot;font-size: 9px;&quot;&gt;Chunk&lt;/font&gt;&lt;/div&gt;" style="shadow=0;strokeWidth=1;rounded=1;absoluteArcSize=1;arcSize=2;labelPosition=center;verticalLabelPosition=middle;align=center;verticalAlign=bottom;spacingLeft=0;fontSize=12;whiteSpace=wrap;spacingBottom=2;html=1;" parent="1" vertex="1">
          <mxGeometry x="860" y="1186.63" width="40" height="55.43" as="geometry" />
        </mxCell>
        <mxCell id="sj1nmU6FJb1mizH8p0wp-249" value="" style="sketch=0;dashed=0;connectable=0;html=1;fillColor=#757575;strokeColor=none;shape=mxgraph.gcp2.list;part=1;" parent="sj1nmU6FJb1mizH8p0wp-248" vertex="1">
          <mxGeometry x="0.5" width="29.5" height="30" relative="1" as="geometry">
            <mxPoint x="-15" y="5" as="offset" />
          </mxGeometry>
        </mxCell>
        <mxCell id="sj1nmU6FJb1mizH8p0wp-250" value="&lt;div style=&quot;line-height: 110%;&quot;&gt;&lt;span style=&quot;font-size: 9px; background-color: initial;&quot;&gt;Unsorted&lt;/span&gt;&lt;br&gt;&lt;/div&gt;&lt;div style=&quot;line-height: 10%;&quot;&gt;&lt;font style=&quot;font-size: 9px;&quot;&gt;Chunk&lt;/font&gt;&lt;/div&gt;" style="shadow=0;strokeWidth=1;rounded=1;absoluteArcSize=1;arcSize=2;labelPosition=center;verticalLabelPosition=middle;align=center;verticalAlign=bottom;spacingLeft=0;fontSize=12;whiteSpace=wrap;spacingBottom=2;html=1;" parent="1" vertex="1">
          <mxGeometry x="880" y="1160.0000000000002" width="40" height="55.43" as="geometry" />
        </mxCell>
        <mxCell id="sj1nmU6FJb1mizH8p0wp-251" value="" style="sketch=0;dashed=0;connectable=0;html=1;fillColor=#757575;strokeColor=none;shape=mxgraph.gcp2.list;part=1;" parent="sj1nmU6FJb1mizH8p0wp-250" vertex="1">
          <mxGeometry x="0.5" width="29.5" height="30" relative="1" as="geometry">
            <mxPoint x="-15" y="5" as="offset" />
          </mxGeometry>
        </mxCell>
        <mxCell id="sj1nmU6FJb1mizH8p0wp-254" value="&lt;div&gt;&lt;br&gt;&lt;/div&gt;RESULT" style="shape=note;whiteSpace=wrap;html=1;backgroundOutline=1;darkOpacity=0.05;" parent="1" vertex="1">
          <mxGeometry x="-180" y="1170" width="70" height="90" as="geometry" />
        </mxCell>
      </root>
    </mxGraphModel>
  </diagram>
</mxfile>
